{"title":"Filimstaan (2014) DvDScr 1CD 700MB [SumoMan]","uid":10328515,"size":740555395,"categoryP":"video","categoryS":"movies","magnet":"?xt=urn:btih:2631168064f6320f888ca323a904a930bdac86f5&amp;dn=Filimstaan+%282014%29+DvDScr+1CD+700MB+%5BSumoMan%5D&amp;tr=udp%3A%2F%2Ftracker.openbittorrent.com%3A80&amp;tr=udp%3A%2F%2Fopen.demonii.com%3A1337&amp;tr=udp%3A%2F%2Ftracker.coppersurfer.tk%3A6969&amp;tr=udp%3A%2F%2Fexodus.desync.com%3A6969","seeders":1,"leechers":0,"uploader":"GoT123","files":4,"time":1402384520,"description":"Info\n\nFormat : Matroska\nFormat version : Version 4 / Version 2\nFile size : 689 MiB\nDuration : 1h 46mn\nOverall bit rate : 904 Kbps\nMovie name : Filimstaan (2014) DvDScr 1CD 700MB [SumoMan]\n\nVideo\nID : 1\nFormat : MPEG-4 Visual\nFormat profile : Advanced Simple@L5\nFormat settings, BVOP : Yes\nFormat settings, QPel : No\nFormat settings, GMC : No warppoints\nFormat settings, Matrix : Default (H.263)\nCodec ID : V_MS/VFW/FOURCC / XVID\nCodec ID/Hint : XviD\nDuration : 1h 46mn\nBit rate : 758 Kbps\nWidth : 640 pixels\nHeight : 272 pixels\nDisplay aspect ratio : 2.35:1\nFrame rate mode : Constant\nFrame rate : 29.970 fps\nColor space : YUV\nChroma subsampling : 4:2:0\nBit depth : 8 bits\nScan type : Progressive\nCompression mode : Lossy\nBits/(Pixel*Frame) : 0.145\nStream size : 577 MiB (84%)\nWriting library : XviD 1.2.1 (UTC 2008-12-04)\nDefault : Yes\nForced : No\n\nAudio\nID : 2\nFormat : MPEG Audio\nFormat version : Version 1\nFormat profile : Layer 3\nMode : Joint stereo\nMode extension : MS Stereo\nCodec ID : A_MPEG/L3\nCodec ID/Hint : MP3\nDuration : 1h 46mn\nBit rate mode : Constant\nBit rate : 128 Kbps\nChannel(s) : 2 channels\nSampling rate : 48.0 KHz\nCompression mode : Lossy\nStream size : 97.5 MiB (14%)\nWriting library : LAME3.99r\nEncoding settings : -m j -V 4 -q 2 -lowpass 17 -b 128\nDefault : Yes\nForced : No\n\nScreenShots\n &lt;a href=&quot;\nhttp://s25.postimg.org/hqzennb7j/vlcsnap_2014_06_08_20h52m21s116.png&quot; rel=&quot;nofollow&quot; target=&quot;_NEW&quot;&gt;\nhttp://s25.postimg.org/hqzennb7j/vlcsnap_2014_06_08_20h52m21s116.png&lt;/a&gt;\n &lt;a href=&quot;\nhttp://s25.postimg.org/6dhgq6q2n/vlcsnap_2014_06_08_21h20m59s143.png&quot; rel=&quot;nofollow&quot; target=&quot;_NEW&quot;&gt;\nhttp://s25.postimg.org/6dhgq6q2n/vlcsnap_2014_06_08_21h20m59s143.png&lt;/a&gt;\n &lt;a href=&quot;\nhttp://s25.postimg.org/tvnuw42v3/vlcsnap_2014_06_08_21h21m23s124.png&quot; rel=&quot;nofollow&quot; target=&quot;_NEW&quot;&gt;\nhttp://s25.postimg.org/tvnuw42v3/vlcsnap_2014_06_08_21h21m23s124.png&lt;/a&gt;\n &lt;a href=&quot;\nhttp://s25.postimg.org/5ugyuno1r/vlcsnap_2014_06_08_21h21m33s225.png&quot; rel=&quot;nofollow&quot; target=&quot;_NEW&quot;&gt;\nhttp://s25.postimg.org/5ugyuno1r/vlcsnap_2014_06_08_21h21m33s225.png&lt;/a&gt;\n\nMore Screen Shots\n &lt;a href=&quot;\nhttp://s25.postimg.org/9uo46wein/Filimstaan_2014_Dv_DScr_1_CD_700_MB_Sumo_Man_mkv.jpg&quot; rel=&quot;nofollow&quot; target=&quot;_NEW&quot;&gt;\nhttp://s25.postimg.org/9uo46wein/Filimstaan_2014_Dv_DScr_1_CD_700_MB_Sumo_Man_mkv.jpg&lt;/a&gt;\n\n","torrent":{"xt":"urn:btih:2631168064f6320f888ca323a904a930bdac86f5","amp;dn":"Filimstaan+%282014%29+DvDScr+1CD+700MB+%5BSumoMan%5D","amp;tr":["udp%3A%2F%2Ftracker.openbittorrent.com%3A80","udp%3A%2F%2Fopen.demonii.com%3A1337","udp%3A%2F%2Ftracker.coppersurfer.tk%3A6969","udp%3A%2F%2Fexodus.desync.com%3A6969"],"infoHash":"2631168064f6320f888ca323a904a930bdac86f5","infoHashBuffer":{"type":"Buffer","data":[38,49,22,128,100,246,50,15,136,140,163,35,169,4,169,48,189,172,134,245]},"announce":[],"urlList":[]}}